<?xml version="1.0" encoding="utf-8"?>
<!-- Generator: Adobe Illustrator 24.0.1, SVG Export Plug-In . SVG Version: 6.00 Build 0)  -->
<svg version="1.1" id="Calque_1" xmlns="http://www.w3.org/2000/svg" xmlns:xlink="http://www.w3.org/1999/xlink" x="0px" y="0px"
	 viewBox="0 0 190.2 199.5" style="enable-background:new 0 0 190.2 199.5;" xml:space="preserve">
<style type="text/css">
	.st0{fill:url(#SVGID_1_);}
	.st1{fill:url(#SVGID_2_);}
	.st2{fill:#59B431;}
</style>
<g id="beGreen">
	
		<linearGradient id="SVGID_1_" gradientUnits="userSpaceOnUse" x1="63.7473" y1="-423.3973" x2="128.7001" y2="-423.3973" gradientTransform="matrix(1 0 0 -1 0 -324)">
		<stop  offset="0" style="stop-color:#93C01F"/>
		<stop  offset="0.65" style="stop-color:#39A935"/>
		<stop  offset="0.73" style="stop-color:#34A435"/>
		<stop  offset="0.82" style="stop-color:#279434"/>
		<stop  offset="0.93" style="stop-color:#117A34"/>
		<stop  offset="1" style="stop-color:#006633"/>
	</linearGradient>
	<path class="st0" d="M126.9,13.6c-10.3,27.8-37.6,16.4-56.5,43c-9.9,14-6.8,32.6-3.4,46.1c1.5-6.1,4.2-11.9,7.8-17
		c10.9-15.6,24.9-22.6,34.7-36.4C101.1,64.8,88.1,72.6,78.1,89c-15.5,25.4-18.1,59.9-0.2,80.1c5.7,6.4,15.3,15.3,28.4,16.1
		c-10.9-1.5-20.1-10.4-25-18c-21.4-33.3-2-60.2,1.1-65c9-11.2,9.7-12.3,25.4-23.7C137.5,57.1,126.9,13.6,126.9,13.6z"/>
	
		<linearGradient id="SVGID_2_" gradientUnits="userSpaceOnUse" x1="27.1435" y1="-417.1973" x2="62.7565" y2="-417.1973" gradientTransform="matrix(1 0 0 -1 0 -324)">
		<stop  offset="0" style="stop-color:#93C01F"/>
		<stop  offset="0.65" style="stop-color:#39A935"/>
		<stop  offset="0.73" style="stop-color:#34A435"/>
		<stop  offset="0.82" style="stop-color:#279434"/>
		<stop  offset="0.93" style="stop-color:#117A34"/>
		<stop  offset="1" style="stop-color:#006633"/>
	</linearGradient>
	<path class="st1" d="M37,97.4c8.4,5,13.6,3.3,18.6,8.2c1.1,1.1,5.7,5.5,7.2,14.4c-0.5-11-6.7-18.4-7.9-20.1
		c-6.2-8.1-12.5-8.9-18-17.3c7.4,8,16.9,9,22.6,21c1.4-6,1.4-13.2-4.1-19.4C45,72.6,35.3,78.7,29.3,66.4
		C29.2,66.4,21.2,88.1,37,97.4z"/>
	<path class="st2" d="M130.7,185.9c-6.8,0.1-13.6-1.2-19.9-3.8c-12.1-5-21.7-14.5-26.7-26.6c-5.1-12.6-5.1-26.8,0-39.4
		c5-12.1,14.6-21.7,26.7-26.6c6.3-2.6,13.1-3.9,19.9-3.8c4.6,0,9.2,0.5,13.7,1.6c4.2,1,8.3,2.6,11.9,4.9c0.9,0.4,1.6,1.1,2.1,2
		c1.2,2.2,0.8,4.9-0.9,6.6c-0.9,1.1-2.3,1.7-3.7,1.7c-0.6,0-1.1-0.1-1.7-0.2c-0.5-0.1-1.1-0.3-1.5-0.6c-3-1.5-6.1-2.7-9.3-3.6
		c-3.5-0.9-7-1.3-10.6-1.3c-6.9-0.1-13.8,1.7-19.8,5.2c-5.7,3.4-10.5,8.2-13.7,14c-6.7,12.4-6.7,27.3,0,39.7c3.2,5.8,8,10.6,13.7,14
		c6,3.5,12.8,5.3,19.7,5.2c3.9,0,7.7-0.5,11.4-1.5c3.5-0.9,6.9-2.2,10-3.9l-0.8,3.4v-29.2l2.1,1.9h-21.2c-1.5,0-2.9-0.6-4-1.6
		c-1.1-1-1.7-2.5-1.7-4c-0.1-1.5,0.6-3,1.7-4.1c1.1-1,2.5-1.6,4-1.6h25.4c1.5,0,3,0.6,4,1.7c1,1.1,1.6,2.5,1.6,4v32.2
		c0,1.1-0.2,2.1-0.8,3c-0.5,0.9-1.2,1.6-2,2.2c-4.3,2.8-9,4.9-13.9,6.4C141.4,185.1,136,185.9,130.7,185.9z"/>
</g>
</svg>
