<svg xmlns="http://www.w3.org/2000/svg" id="Calque_1" data-name="Calque 1" viewBox="0 0 58.25 71.01"><defs><style>.cls-1{fill:#5cb135;}.cls-1,.cls-2,.cls-3{fill-rule:evenodd;}.cls-2{fill:#485020;}.cls-3{fill:#08672f;}</style></defs><path class="cls-1" d="M41.16,31.93c.16-.14.33-.29.48-.45a8.59,8.59,0,0,0,1.9-5.26A23.42,23.42,0,0,0,43,19.54c-1-4.68-3.13-9-5-10l-.23-.12-.24.12c-1.89,1-4,5.34-5,10a24.16,24.16,0,0,0-.58,6.68,12,12,0,0,0,.61,3.06c-.56-.11-1.12-.21-1.69-.29l-.45-.07-.14,0-1-.13-.82-.09-.57-.05v-.45a4,4,0,0,0,2.32-1.13,4,4,0,1,0-5.65,0,4.07,4.07,0,0,0,2.11,1.1v.39l-1.15-.06h-.3l-.73,0h0c-1,0-2,0-3.07.05a44.38,44.38,0,0,1,15.46,8.11c1.51-.24,3.07-.46,4.66-.63,2.2-.24,4.34-.39,6.39-.46A43.15,43.15,0,0,0,41.16,31.93Zm7.48,4.47A77.86,77.86,0,0,0,19.2,46.73l5.71,3.15A57.22,57.22,0,0,1,50.6,37.68ZM18.08,28.81c-7.64,1.77-9.88,11.62-1.93,15.52,2.48-2.46,7.81-4.82,14.6-6.48A40.36,40.36,0,0,0,18.08,28.81Zm2,10v-.39a.09.09,0,0,1,0,0l-.25,0c.26,0,.54,0,.83,0s.55,0,.81,0l-.18,0v.45a.6.6,0,0,1-.61.6A.61.61,0,0,1,20.08,38.83Zm-4.21,1.23h-.52a4.27,4.27,0,0,0-.52,0h-.09a2,2,0,0,1,.54-3.94,2,2,0,0,1,.59,3.93Z"></path><path class="cls-2" d="M30.78,29a46.91,46.91,0,0,0-6.37-.53.36.36,0,0,0-.17.27c0,.48,1.5.87,3.35.87A6.21,6.21,0,0,0,30.78,29Z"></path><path class="cls-1" d="M29.39,22.14a3,3,0,0,0-2.08-.86,3,3,0,0,0-2.95,2.94,3,3,0,0,0,2.95,3,2.95,2.95,0,0,0,2.08-5Z"></path><path class="cls-2" d="M17.17,40.69c0,.37-.82.66-1.82.66s-1.82-.29-1.82-.66.5-.53,1.21-.62h.09a4.27,4.27,0,0,1,.52,0h.52C16.62,40.14,17.17,40.39,17.17,40.69Z"></path><path class="cls-2" d="M23.62,39.2c0,.5-1.33.9-2.95.9s-3-.4-3-.9.89-.75,2.11-.86h0l.25,0a.09.09,0,0,0,0,0v.39a.61.61,0,0,0,.61.6.6.6,0,0,0,.61-.6v-.45l.18,0h0C22.72,38.45,23.62,38.79,23.62,39.2Z"></path><path class="cls-3" d="M15.68,40.05h-.33a4.27,4.27,0,0,0-.52,0h-.09l.08,0a1.76,1.76,0,0,0,.46.06,1.84,1.84,0,0,0,.41,0l.18,0Zm5-8.55a3.47,3.47,0,0,0-.82,6.84h0c.26,0,.54,0,.83,0s.55,0,.81,0h0a3.47,3.47,0,0,0-.83-6.84Z"></path><path class="cls-1" d="M21.48,38.34l-.18,0v.45a.6.6,0,0,1-.61.6.61.61,0,0,1-.61-.6v-.39a.09.09,0,0,1,0,0l-.25,0c.26,0,.54,0,.83,0S21.22,38.32,21.48,38.34Z"></path><path class="cls-3" d="M17.3,38.14a2,2,0,0,1-1.43,1.92h-.52a4.27,4.27,0,0,0-.52,0h-.09a2,2,0,0,1,.54-3.94A2,2,0,0,1,17.3,38.14Z"></path><path class="cls-1" d="M15.69,40.14v.27a.44.44,0,0,1-.43.44.44.44,0,0,1-.44-.44v-.32a0,0,0,0,1,0,0,4.27,4.27,0,0,1,.52,0h.33a.13.13,0,0,1,0,.06Z"></path><path class="cls-2" d="M40.79,32.32c.8.22,1.28.51,1.28.83,0,.66-2,1.19-4.55,1.19S33,33.81,33,33.15c0-.36.6-.68,1.55-.9a6.13,6.13,0,0,0,6.28.07Z"></path></svg>