<svg xmlns="http://www.w3.org/2000/svg" xmlns:xlink="http://www.w3.org/1999/xlink" viewBox="0 0 568.24 239.52"><defs><style>.cls-1{opacity:0;}.cls-2{fill:#606060;}.cls-3{fill:url(#Dégradé_sans_nom_2);}.cls-4{fill:url(#Dégradé_sans_nom_2-2);}.cls-5{fill:#59b431;}.cls-6{fill:#fff;}</style><linearGradient id="Dégradé_sans_nom_2" x1="180.77" y1="98.63" x2="245.72" y2="98.63" gradientUnits="userSpaceOnUse"><stop offset="0" stop-color="#93c01f"/><stop offset="0.65" stop-color="#39a935"/><stop offset="0.73" stop-color="#34a435"/><stop offset="0.82" stop-color="#279434"/><stop offset="0.93" stop-color="#117a34"/><stop offset="1" stop-color="#063"/></linearGradient><linearGradient id="Dégradé_sans_nom_2-2" x1="144.16" y1="92.37" x2="179.74" y2="92.37" xlink:href="#Dégradé_sans_nom_2"/></defs><g id="Écran_Services" data-name="Écran Services"><g id="Services"><g id="Services_3" data-name="Services 3"><g id="_VOTRE_IMAGE_ICI_" data-name="[VOTRE IMAGE ICI]" class="cls-1"><rect class="cls-2" width="568.24" height="239.52"/></g></g></g></g><g id="IntégrationVectorisés"><g id="beGreen"><path class="cls-3" d="M243.89,12.8c-10.27,27.79-37.6,16.43-56.45,43-9.91,14-6.75,32.57-3.41,46.12a50.9,50.9,0,0,1,7.8-17c10.89-15.64,24.85-22.6,34.67-36.37C218.07,64,205.14,71.81,195.15,88.2c-15.53,25.44-18.12,59.87-.17,80.13,5.71,6.44,15.29,15.28,28.38,16.13-10.9-1.49-20.13-10.45-25-18-21.35-33.27-2-60.19,1.09-65,9-11.18,9.66-12.26,25.45-23.74C254.43,56.23,243.89,12.8,243.89,12.8Z"/><path class="cls-4" d="M153.93,96.57c8.43,5,13.65,3.27,18.56,8.16,1.13,1.09,5.7,5.47,7.25,14.39-.52-11-6.67-18.42-7.94-20.08-6.16-8.09-12.46-8.92-18-17.3,7.35,8,16.9,9,22.57,21,1.37-6,1.37-13.25-4.1-19.37-10.39-11.64-20.09-5.54-26.09-17.76C146.22,65.62,138.17,87.23,153.93,96.57Z"/><path class="cls-5" d="M247.63,185.07a51.5,51.5,0,0,1-19.95-3.83A49,49,0,0,1,201,154.62a52.56,52.56,0,0,1,0-39.44,49,49,0,0,1,26.7-26.62,51.32,51.32,0,0,1,19.95-3.84,58,58,0,0,1,13.73,1.61,39.45,39.45,0,0,1,11.93,4.94,4.7,4.7,0,0,1,2.09,2,5.56,5.56,0,0,1-.91,6.62,5,5,0,0,1-3.69,1.68,6.9,6.9,0,0,1-1.68-.21,5.6,5.6,0,0,1-1.53-.63,46.07,46.07,0,0,0-9.34-3.55,41.16,41.16,0,0,0-10.6-1.33A38,38,0,0,0,227.89,101a37.45,37.45,0,0,0-13.73,14,41.79,41.79,0,0,0,0,39.72,37.35,37.35,0,0,0,13.73,14,38,38,0,0,0,19.74,5.16,45.13,45.13,0,0,0,11.43-1.53,41.31,41.31,0,0,0,10-3.91l-.83,3.35V142.56l2.09,1.95h-21.2a5.61,5.61,0,0,1-4-1.6,5.27,5.27,0,0,1-1.68-4,5.43,5.43,0,0,1,1.68-4.11,5.62,5.62,0,0,1,4-1.61h25.38a5.29,5.29,0,0,1,4,1.68,5.61,5.61,0,0,1,1.6,4v32.19a5.88,5.88,0,0,1-.77,3,6.43,6.43,0,0,1-2,2.16,56.4,56.4,0,0,1-13.87,6.41A52.91,52.91,0,0,1,247.63,185.07Z"/><path class="cls-6" d="M68.18,117.53a30.67,30.67,0,0,1,16.16,4.25,31.08,31.08,0,0,1,11.2,11.69,34.67,34.67,0,0,1,4.16,17.19,35.18,35.18,0,0,1-4.16,17.12,31.39,31.39,0,0,1-11.27,12,29.76,29.76,0,0,1-16,4.38,28.56,28.56,0,0,1-8.92-1.38,30.85,30.85,0,0,1-7.71-3.69,29.69,29.69,0,0,1-6.17-5.43A28.21,28.21,0,0,1,41.23,167l2.41-1.75v14.13a3.72,3.72,0,0,1-1.14,2.75,3.93,3.93,0,0,1-2.88,1.12,4.16,4.16,0,0,1-2.95-1.12,3.64,3.64,0,0,1-1.21-2.75V94.28a3.56,3.56,0,0,1,1.14-2.62,4.12,4.12,0,0,1,3-1.13,3.94,3.94,0,0,1,2.88,1.13,3.56,3.56,0,0,1,1.14,2.62v41.88l-1.87-1a22.8,22.8,0,0,1,3.95-7.07,29,29,0,0,1,22.46-10.56Zm-.67,7.13A24.19,24.19,0,0,0,54.77,128a23.43,23.43,0,0,0-8.65,9.19A28.09,28.09,0,0,0,43,150.66a29,29,0,0,0,3.15,13.56,24,24,0,0,0,8.65,9.5,23.55,23.55,0,0,0,12.74,3.44,22.66,22.66,0,0,0,12.54-3.5,24.64,24.64,0,0,0,8.58-9.57,28.69,28.69,0,0,0,3.15-13.43,28.09,28.09,0,0,0-3.15-13.5,23,23,0,0,0-21.12-12.5Z"/><path class="cls-6" d="M146.76,184.16a38.77,38.77,0,0,1-18.3-4.13,30.59,30.59,0,0,1-12.27-11.5,32.85,32.85,0,0,1-4.43-17.25q0-10.62,4.49-18.12a31.79,31.79,0,0,1,11.67-11.57,30.5,30.5,0,0,1,15.22-4.06,34.67,34.67,0,0,1,11.47,1.94,29,29,0,0,1,9.85,5.75,29.82,29.82,0,0,1,7,9.31,30.2,30.2,0,0,1,2.81,12.75,3.29,3.29,0,0,1-1.2,2.56,4.15,4.15,0,0,1-2.82,1.07H116.46l-1.61-6.75h52.7l-1.75,1.5v-2.5a17.16,17.16,0,0,0-4-9.94A23.59,23.59,0,0,0,153.4,127a24.35,24.35,0,0,0-18.51-.69,21.83,21.83,0,0,0-7.64,4.69,23.92,23.92,0,0,0-5.56,8.12,29,29,0,0,0-2.15,11.69,27.8,27.8,0,0,0,3.22,13.38,23.86,23.86,0,0,0,9.25,9.5,28.74,28.74,0,0,0,14.62,3.5,26.26,26.26,0,0,0,8.31-1.25,24.87,24.87,0,0,0,6.64-3.32,25.22,25.22,0,0,0,4.76-4.31,4.31,4.31,0,0,1,2.82-1.12,3.37,3.37,0,0,1,2.48,1,3.07,3.07,0,0,1,1,2.25A3.32,3.32,0,0,1,171.3,173a35.63,35.63,0,0,1-10.46,7.81A30.28,30.28,0,0,1,146.76,184.16Z"/><path class="cls-6" d="M295.06,182.91a4.11,4.11,0,0,1-3-1.13,3.56,3.56,0,0,1-1.14-2.62v-56a3.48,3.48,0,0,1,1.21-2.63,4.14,4.14,0,0,1,2.95-1.12,3.93,3.93,0,0,1,2.88,1.12,3.59,3.59,0,0,1,1.14,2.63v18.75l-2,.37a27.11,27.11,0,0,1,2.34-8.69,29.43,29.43,0,0,1,5.3-7.93,26.42,26.42,0,0,1,8-5.88,23.44,23.44,0,0,1,10.39-2.25,12.21,12.21,0,0,1,4.7.94,3.18,3.18,0,0,1,2.27,3.06,3.74,3.74,0,0,1-1.07,2.88,3.62,3.62,0,0,1-2.55,1,6.44,6.44,0,0,1-2.61-.63,9.33,9.33,0,0,0-3.69-.62,15.42,15.42,0,0,0-7.51,2.06,25.51,25.51,0,0,0-6.84,5.56,28.68,28.68,0,0,0-4.89,7.81,22.27,22.27,0,0,0-1.81,8.69v30.88a3.46,3.46,0,0,1-1.21,2.62A4,4,0,0,1,295.06,182.91Z"/><path class="cls-6" d="M370.15,184.16a38.77,38.77,0,0,1-18.3-4.13,30.59,30.59,0,0,1-12.27-11.5,32.85,32.85,0,0,1-4.43-17.25q0-10.62,4.49-18.12a31.79,31.79,0,0,1,11.67-11.57,30.5,30.5,0,0,1,15.22-4.06A34.72,34.72,0,0,1,378,119.47a29,29,0,0,1,9.85,5.75,29.82,29.82,0,0,1,7,9.31,30.2,30.2,0,0,1,2.81,12.75,3.27,3.27,0,0,1-1.21,2.56,4.11,4.11,0,0,1-2.81,1.07H339.84l-1.6-6.75h52.7l-1.75,1.5v-2.5a17.29,17.29,0,0,0-4-9.94,23.67,23.67,0,0,0-8.38-6.25,24.86,24.86,0,0,0-10.26-2.19,24.6,24.6,0,0,0-8.25,1.5,21.83,21.83,0,0,0-7.64,4.69,23.78,23.78,0,0,0-5.56,8.12,29,29,0,0,0-2.15,11.69,27.8,27.8,0,0,0,3.22,13.38,23.86,23.86,0,0,0,9.25,9.5,28.69,28.69,0,0,0,14.62,3.5,26.26,26.26,0,0,0,8.31-1.25,24.87,24.87,0,0,0,6.64-3.32,25.22,25.22,0,0,0,4.76-4.31,4.31,4.31,0,0,1,2.82-1.12,3.37,3.37,0,0,1,2.48,1,3.07,3.07,0,0,1,1,2.25,3.35,3.35,0,0,1-1.34,2.62,35.63,35.63,0,0,1-10.46,7.81A30.28,30.28,0,0,1,370.15,184.16Z"/><path class="cls-6" d="M444,184.16A38.81,38.81,0,0,1,425.73,180a30.59,30.59,0,0,1-12.27-11.5A32.85,32.85,0,0,1,409,151.28q0-10.62,4.49-18.12a31.72,31.72,0,0,1,11.67-11.57,30.48,30.48,0,0,1,15.22-4.06,34.66,34.66,0,0,1,11.46,1.94,29.08,29.08,0,0,1,9.86,5.75,29.27,29.27,0,0,1,9.79,22.06,3.27,3.27,0,0,1-1.21,2.56,4.11,4.11,0,0,1-2.81,1.07H413.73l-1.61-6.75h52.7l-1.74,1.5v-2.5a17.29,17.29,0,0,0-4-9.94,23.67,23.67,0,0,0-8.38-6.25,24.89,24.89,0,0,0-10.26-2.19,24.6,24.6,0,0,0-8.25,1.5,21.83,21.83,0,0,0-7.64,4.69,23.94,23.94,0,0,0-5.57,8.12,29.22,29.22,0,0,0-2.14,11.69A27.8,27.8,0,0,0,420,164.16a23.86,23.86,0,0,0,9.25,9.5,28.69,28.69,0,0,0,14.62,3.5,26.35,26.35,0,0,0,8.31-1.25,25,25,0,0,0,6.64-3.32,25.53,25.53,0,0,0,4.76-4.31,4.31,4.31,0,0,1,2.81-1.12,3.35,3.35,0,0,1,2.48,1,3.09,3.09,0,0,1,1,2.25,3.35,3.35,0,0,1-1.34,2.62,35.63,35.63,0,0,1-10.46,7.81A30.31,30.31,0,0,1,444,184.16Z"/><path class="cls-6" d="M519.8,117.53q8.87,0,14.15,3.31a19,19,0,0,1,7.65,9,32.76,32.76,0,0,1,2.34,12.57v36.75a3.48,3.48,0,0,1-1.2,2.62,4,4,0,0,1-2.82,1.13,4.12,4.12,0,0,1-3-1.13,3.56,3.56,0,0,1-1.14-2.62V142.78a23.24,23.24,0,0,0-1.74-9.12,14.09,14.09,0,0,0-5.63-6.57q-3.9-2.43-10.33-2.43a25.36,25.36,0,0,0-10.93,2.43,22.84,22.84,0,0,0-8.38,6.57,14.51,14.51,0,0,0-3.22,9.12v36.38a3.48,3.48,0,0,1-1.2,2.62,4,4,0,0,1-2.82,1.13,4.12,4.12,0,0,1-3-1.13,3.56,3.56,0,0,1-1.14-2.62v-56a3.51,3.51,0,0,1,1.21-2.63,4.16,4.16,0,0,1,2.95-1.12,3.93,3.93,0,0,1,2.88,1.12,3.59,3.59,0,0,1,1.14,2.63v10.5l-3.08,4.5a15.45,15.45,0,0,1,2.75-7.69,27.5,27.5,0,0,1,6.37-6.63,31.92,31.92,0,0,1,8.65-4.62A28.38,28.38,0,0,1,519.8,117.53Z"/></g></g></svg>