<svg id="Calque_1" data-name="Calque 1" xmlns="http://www.w3.org/2000/svg" viewBox="0 0 58.25 71.01"><defs><style>.cls-1{fill:#dadada;}.cls-2{fill:#fff;}.cls-3{fill:#006b31;}.cls-4{fill:#5cb135;}.cls-5{fill:#272629;}.cls-6,.cls-8{fill:#212022;}.cls-7{fill:#f4a392;}.cls-8{opacity:0.12;}.cls-9{fill:#1d1d1b;}.cls-10{fill:#8e8e8e;}.cls-11{fill:#aeadad;}.cls-12{fill:#101011;}.cls-13{fill:#1d1d1f;}.cls-14{fill:#65a75a;}.cls-15{fill:#00983a;}.cls-16{fill:#a8c798;}.cls-17{fill:#2b292c;}.cls-18{fill:#b3cda4;}.cls-19{fill:#94bc82;}.cls-20{fill:#99be87;}.cls-21{fill:#7fb16e;}</style></defs><path class="cls-1" d="M36,41.14a.13.13,0,0,1-.16.07h0a.11.11,0,0,1-.07-.15L36.2,40a.11.11,0,0,1,.15-.07h0a.12.12,0,0,1,.08.15Z"/><path class="cls-2" d="M36,41.14l.39-1.1a.12.12,0,0,0-.06-.15v0l-.47,1.31A.13.13,0,0,0,36,41.14Z"/><path class="cls-1" d="M35.88,41.21a.18.18,0,0,0-.15,0s-.1,0-.1,0l.21.09Z"/><path class="cls-2" d="M35.88,41.2a.21.21,0,0,1,.08.14s.07.08.07.08l-.2,0Z"/><path class="cls-1" d="M35.45,41.17c.09.15.28.08.4.15-.18.59-.35,1-.35,1a.33.33,0,0,1-.15-.36Z"/><path class="cls-2" d="M36.23,41.47c-.07.05-.24-.13-.38-.16-.16.51-.36,1-.36,1a.36.36,0,0,0,.35-.19C35.92,42,36.23,41.47,36.23,41.47Z"/><path class="cls-1" d="M36,41.24s-.07,0-.13,0l-.07,0c-.06,0-.1-.07-.08-.1h0s0-.08,0-.06l.22.08c.06,0,0,0,0,.08Z"/><path class="cls-1" d="M36,41.16l-.22-.08s0,0,0,0l.29.11S36.07,41.18,36,41.16Z"/><path class="cls-3" d="M23.56,47.43s-5.29-6.51-3.62-9.84a3.94,3.94,0,0,1,4.9-2.14,4.13,4.13,0,0,1,1.31-3.66,3,3,0,0,1,3.54,0s1.1-2.15,2.83-1.9a1.86,1.86,0,0,1,1.63,1.95s2.2-.77,3.32.1a2.19,2.19,0,0,1,.62,2.35s2.25-.34,1.28,2.11a3.85,3.85,0,0,1,1.43,3c.05,2-2.29,4.45-4,4.61s-3.29,3.46-3.29,3.46Z"/><path class="cls-4" d="M14,47.43s-4.79-2.94-3.58-5A1.52,1.52,0,0,1,12,41.59s-2.71-2.5-.94-4.39a2.47,2.47,0,0,1,2.44-.72s-.2-2.31,3-2.92a3.67,3.67,0,0,1,4.27,1.89,2.31,2.31,0,0,1,2.63-.59,1.86,1.86,0,0,1,.78,3s3.11-.58,3.89,2-2.88,7.6-2.88,7.6Z"/><path class="cls-3" d="M30.67,23.68c-.3-.89-.65-1.77-.87-2.68a1.54,1.54,0,0,1,.93.14A9.4,9.4,0,0,0,30.67,23.68Z"/><path class="cls-4" d="M29.8,21c.22.91.57,1.79.87,2.68a9.4,9.4,0,0,1,.06-2.54,8,8,0,0,1,1.73,1A5.87,5.87,0,0,1,32,23.7a3.24,3.24,0,0,1-1,1.12,9.53,9.53,0,0,1-1.68-2.45l0-.37C29.28,21.37,29.48,21.08,29.8,21Z"/><path class="cls-3" d="M31,24.82a3.24,3.24,0,0,0,1-1.12,6.93,6.93,0,0,1-.83,1.42.37.37,0,0,1-.56,0,4.62,4.62,0,0,1-1.28-2.79A9.53,9.53,0,0,0,31,24.82Z"/><path class="cls-5" d="M29.18,12.84a.81.81,0,0,1,.5-.12,1.41,1.41,0,0,1,.7,1.92l-2.06-.77A2.08,2.08,0,0,1,29.18,12.84Z"/><path class="cls-6" d="M29.36,12.58a1.92,1.92,0,0,1,.32.14.81.81,0,0,0-.5.12,2.08,2.08,0,0,0-.86,1l-1.18-.43A1.56,1.56,0,0,1,29.36,12.58Z"/><path class="cls-7" d="M27.62,15.18a3.42,3.42,0,0,0,.9,1,2.39,2.39,0,0,0-.43,1.37c-.1,1.68-1-.64-1-.64Z"/><path class="cls-8" d="M27.52,15.5,27.7,15l1.32.88a1.06,1.06,0,0,0-.69.67C27.89,16.25,27.84,15.93,27.52,15.5Z"/><path class="cls-5" d="M28.76,27.51,34,35.21l4.91,12.21H32.33l-1.4-11.69s-4.6-6.52-5.38-8.22S28.76,27.51,28.76,27.51Z"/><path class="cls-9" d="M27.14,13.44s-.5,1.29.37,1.7.61-1.34.61-1.34Z"/><path class="cls-7" d="M30.34,14.62s-.61,1.58-1.08,1.74c-1,.37-1.75-1.22-1.75-1.22l.22-.82a.66.66,0,0,1-.22-.75Z"/><path class="cls-6" d="M28.76,27.51l.28.41c.59,2.63,1.55,6.12,2.73,7.58l.53-1.1,3.23,13h-3.2l-1.4-11.69s-4.6-6.52-5.38-8.22S28.76,27.51,28.76,27.51Z"/><path class="cls-10" d="M28.94,29.17h1a0,0,0,0,1,0,0v0a.41.41,0,0,1-.41.41h-.19a.41.41,0,0,1-.41-.41v0A0,0,0,0,1,28.94,29.17Z" transform="translate(37.92 70.09) rotate(-146.7)"/><path class="cls-5" d="M28.76,27.51a2.53,2.53,0,0,1-1.61,2.67l-1,6.88L20.9,47.42H14.59l8.17-10.71,1.61-7.65s-.26-1.19.67-1.55A12.44,12.44,0,0,1,28.76,27.51Z"/><path class="cls-10" d="M29.21,30a.19.19,0,0,0,.14-.09l1.32-2L32.88,29a.19.19,0,0,0,.26-.08.2.2,0,0,0-.08-.26l-2.52-1.29L29,29.67a.19.19,0,0,0,.06.26A.27.27,0,0,0,29.21,30Z"/><path class="cls-3" d="M28.41,17.26l.07,0a.72.72,0,0,1-.7.24l-.19-.08A.85.85,0,0,0,28.41,17.26Z"/><path class="cls-6" d="M18.1,47.42H14.59l8.17-10.71,1.61-7.65s-.26-1.19.67-1.55l.24-.07L23.71,36.3l1.21-.45Z"/><path class="cls-7" d="M27.59,16.75l.82.51a.85.85,0,0,1-.82.21,2.77,2.77,0,0,1-.73-.45Z"/><path class="cls-3" d="M25,17.69l1-.36a6.28,6.28,0,0,1-.12,4.08.45.45,0,0,0,0,.21A4.79,4.79,0,0,1,25,22.86Z"/><polygon class="cls-11" points="25.75 27.01 25.04 28.09 42.23 39.38 44.07 39.04 25.75 27.01"/><polygon class="cls-2" points="25.75 27.01 26.11 27.25 25.58 28.05 42.69 39.3 42.23 39.38 25.04 28.09 25.75 27.01"/><polygon class="cls-12" points="14.59 47.42 23.24 47.42 22.06 47.16 21.9 47.13 19.25 46.55 18.97 46.49 18.46 46.38 18.17 46.32 15.82 45.81 14.81 47.13 14.79 47.16 14.59 47.42"/><polygon class="cls-12" points="32.13 45.81 32.29 47.13 32.3 47.16 32.33 47.42 40.89 47.42 39.5 47.16 39.31 47.13 36.42 46.6 36.14 46.55 35.61 46.45 35.33 46.4 32.13 45.81"/><path class="cls-6" d="M31.53,15.14a.08.08,0,0,0,.08-.06.08.08,0,0,0-.05-.11l-4.39-1.62a.1.1,0,0,0-.11.05.11.11,0,0,0,.05.12l4.39,1.62Z"/><path class="cls-13" d="M29.54,15.06a.08.08,0,0,0,.07-.05l.1-.38a.06.06,0,0,0-.05-.08.08.08,0,0,0-.09,0l-.09.38a.08.08,0,0,0,0,.09Z"/><path class="cls-13" d="M30,15.2a.08.08,0,0,0,.07,0l.09-.38a.07.07,0,0,0,0-.08.07.07,0,0,0-.09.05l-.1.38a.07.07,0,0,0,.05.08Z"/><path class="cls-3" d="M24.38,18.47a.74.74,0,0,1,.48-.72l2-.73.14.11-1.09,2.92v0a7.85,7.85,0,0,0-1.44-.39c0-.17,0-.34-.07-.51S24.38,18.66,24.38,18.47Z"/><path class="cls-3" d="M24.4,19.17c0,.17.05.34.07.51h0Q24.42,19.41,24.4,19.17Z"/><path class="cls-3" d="M25.88,21.41A6.28,6.28,0,0,0,26,17.33h0a5.44,5.44,0,0,1-.12,4.3A.45.45,0,0,1,25.88,21.41Z"/><path class="cls-14" d="M27.08,16.94l-.08.19L26.86,17Z"/><path class="cls-15" d="M29.43,20.3a4.5,4.5,0,0,1-2,.16,13.74,13.74,0,0,0-.79-3.35l.25-.09a2.91,2.91,0,0,0,.92.53.72.72,0,0,0,.7-.24l.5.31A7.74,7.74,0,0,1,29.43,20.3Z"/><path class="cls-3" d="M29.43,20.3A7.74,7.74,0,0,0,29,17.62h0a9.1,9.1,0,0,1,.66,2.86,5.13,5.13,0,0,1-2.24,0v0A4.5,4.5,0,0,0,29.43,20.3Z"/><path class="cls-5" d="M26.37,23.44c.38-2.12.7-4.25-.08-6.21l.32-.12a13.44,13.44,0,0,1,.79,3.37,5.13,5.13,0,0,0,2.24,0A9.1,9.1,0,0,0,29,17.62l.51.32s1.86,2.29,1.36,4.32S29,26,28.77,27.39A3.58,3.58,0,0,1,26.37,23.44Z"/><path class="cls-6" d="M26,17.32l.26-.09c.78,2,.46,4.09.08,6.21a3.58,3.58,0,0,0,2.4,3.95.49.49,0,0,0,0,.12s-.93,1.08-3.72,0V22.86A5.24,5.24,0,0,0,26,17.32Z"/><path class="cls-2" d="M20.84,26.45l5.51,3.61a.65.65,0,0,0,.91-.19l1-1.53a.66.66,0,0,0-.19-.91l-5.51-3.62a1.34,1.34,0,0,0-1.85.38l-.26.41A1.34,1.34,0,0,0,20.84,26.45Z"/><path class="cls-10" d="M20.59,24.39h0a1.57,1.57,0,0,1,1.55-.69,1.68,1.68,0,0,0-.75.6h0a1.59,1.59,0,0,0,.46,2.19l5.2,3.42.1.05a.78.78,0,0,1-.9,0L21,26.58A1.59,1.59,0,0,1,20.59,24.39Z"/><path class="cls-3" d="M24.73,22.47s0-.1,0-.15a2.57,2.57,0,0,1,1.79-.17h0A3,3,0,0,0,24.73,22.47Z"/><path class="cls-3" d="M25.91,20.07l.59,2.08a2.53,2.53,0,0,0-1.61.09,24.39,24.39,0,0,1-.42-2.56A7.85,7.85,0,0,1,25.91,20.07Z"/><path class="cls-3" d="M24.89,22.24l-.18.08c-.15-.92-.23-1.87-.28-2.64h0A24.39,24.39,0,0,0,24.89,22.24Z"/><polygon class="cls-3" points="27.08 16.94 27.01 17.12 26.96 16.98 27.08 16.94"/><path class="cls-16" d="M26.17,21l-.48-1.77.56,1.48C26.22,20.77,26.2,20.87,26.17,21Z"/><path class="cls-4" d="M31.81,28.06a1.08,1.08,0,1,1-2.1-.21A6.67,6.67,0,0,1,26,25.06a9.12,9.12,0,0,1-1.07-2.69,3.39,3.39,0,0,1,1.58-.21l.58,2,3.12,2.29a3.14,3.14,0,0,1,1.73.69c.7.63.89,1.66.52,1.77A2.56,2.56,0,0,1,31.81,28.06Z"/><path class="cls-3" d="M26,25.06a6.67,6.67,0,0,0,3.72,2.79,1.08,1.08,0,1,0,2.1.21,2.56,2.56,0,0,0,.64.88h0c-.39,0-.53-.41-.53-.41a1.1,1.1,0,0,1-1.38.92c-1.17-.28-1-1.06-1-1.06s-3-1.24-4.07-3.4a10.28,10.28,0,0,1-.69-2.52l.19-.1A9.12,9.12,0,0,0,26,25.06Z"/><polygon class="cls-3" points="27.08 24.19 25.94 23.53 26.96 23.79 27.08 24.19"/><path class="cls-6" d="M27.73,21.41h2a.09.09,0,0,0,0-.18h-2a.09.09,0,0,0,0,.18Z"/><path class="cls-6" d="M28.61,24.21l1.05-1.35.1-1.08a0,0,0,0,0,0,0,0,0,0,0,0,0,0l-.11,1.07-1,1.31-1-1.26.05-1.22,0,0a0,0,0,0,0,0,0l-.05,1.23Z"/><ellipse class="cls-6" cx="26.96" cy="20.66" rx="0.2" ry="0.33"/><path class="cls-6" d="M29.4,21.71a.09.09,0,0,0,.09.1.09.09,0,0,0,.1-.1.09.09,0,0,0-.1-.09A.09.09,0,0,0,29.4,21.71Z"/><path class="cls-6" d="M27.81,21.71a.09.09,0,0,0,.09.1.09.09,0,0,0,.1-.1.09.09,0,0,0-.1-.09A.09.09,0,0,0,27.81,21.71Z"/><path class="cls-13" d="M29.64,25.12s1.12-5.55-1.16-7.81a1.71,1.71,0,0,1,.63.39c.2.23,2.37,2.52.8,6.93A.87.87,0,0,1,29.64,25.12Z"/><path class="cls-3" d="M30.42,19.89a2,2,0,0,0,.76,2.24,1.9,1.9,0,0,0,1.13.11,1.73,1.73,0,0,1-1.55-.14c-.82-.49-.51-1.73-.51-1.73s-.61.53-.79,0a.29.29,0,0,1,0-.09A1.35,1.35,0,0,0,30.42,19.89Z"/><path class="cls-4" d="M31.62,19a2.39,2.39,0,0,1,.84,3.12.64.64,0,0,1-.15.08,1.9,1.9,0,0,1-1.13-.11,2,2,0,0,1-.76-2.24,1.35,1.35,0,0,1-1,.42C29.41,19.75,30.62,18.49,31.62,19Z"/><polygon class="cls-17" points="32.29 47.13 32.3 47.16 39.5 47.16 39.31 47.13 32.29 47.13"/><polygon class="cls-17" points="14.79 47.16 22.06 47.16 21.9 47.13 14.81 47.13 14.79 47.16"/><polygon class="cls-17" points="35.65 47.42 35.97 47.42 36.11 47.16 36.13 47.13 36.42 46.6 36.14 46.55 35.81 47.13 35.79 47.16 35.65 47.42"/><polygon class="cls-17" points="35.33 46.4 34.92 47.13 34.9 47.16 34.76 47.42 35.07 47.42 35.22 47.16 35.23 47.13 35.61 46.45 35.33 46.4"/><polygon class="cls-17" points="18.46 47.42 18.77 47.42 18.91 47.16 18.93 47.13 19.25 46.55 18.97 46.49 18.62 47.13 18.6 47.16 18.46 47.42"/><polygon class="cls-17" points="17.56 47.42 17.88 47.42 18.02 47.16 18.04 47.13 18.46 46.38 18.17 46.32 17.73 47.13 17.71 47.16 17.56 47.42"/><path class="cls-10" d="M21.55,24.68a.83.83,0,0,1,1.16-.23l2.05,1.36a.84.84,0,0,1-.93,1.39l-2-1.36A.84.84,0,0,1,21.55,24.68Zm1.08-.12a.7.7,0,1,0-.77,1.16l2.05,1.37a.7.7,0,1,0,.77-1.17Z"/><path class="cls-10" d="M24.25,27s.06,0,.07-.05l.15-1s0-.07-.06-.08a.09.09,0,0,0-.08.06l-.15,1a.07.07,0,0,0,.06.07Z"/><path class="cls-10" d="M23.89,26.86a.05.05,0,0,0,.07-.05l.15-1s0-.07-.06-.08-.07,0-.07.06l-.15,1a.06.06,0,0,0,.05.07Z"/><path class="cls-10" d="M23.54,26.67a.09.09,0,0,0,.08-.06l.15-1a.07.07,0,0,0-.06-.07.07.07,0,0,0-.08.05l-.15,1a.06.06,0,0,0,.06.07Z"/><path class="cls-10" d="M23.22,26.44a.09.09,0,0,0,.07-.06l.15-1a.06.06,0,0,0-.06-.08s-.07,0-.08.06l-.15,1a.08.08,0,0,0,.06.08Z"/><path class="cls-10" d="M22.88,26.22s.07,0,.07-.06l.16-1s0-.08-.06-.08a.06.06,0,0,0-.08.06l-.15,1s0,.07.06.08Z"/><path class="cls-10" d="M22.56,26a.07.07,0,0,0,.07-.06l.15-1a.07.07,0,0,0-.14,0l-.15,1s0,.07.06.08Z"/><path class="cls-10" d="M22.22,25.77s.07,0,.07-.06l.15-1a.07.07,0,0,0-.05-.08s-.08,0-.08.06l-.15,1a.06.06,0,0,0,.05.08Z"/><path class="cls-10" d="M27.4,28.2a.25.25,0,0,0,.25.25.26.26,0,0,0,.26-.25.26.26,0,0,0-.26-.26A.26.26,0,0,0,27.4,28.2Z"/><path class="cls-10" d="M26.61,27.53a.25.25,0,1,0,.34-.09A.25.25,0,0,0,26.61,27.53Z"/><path class="cls-18" d="M40.6,40a16.26,16.26,0,0,0,1.91,1.81h.06a4.64,4.64,0,0,0-2.24-2.09A1.79,1.79,0,0,1,40.6,40Z"/><path class="cls-19" d="M40.6,40a1.79,1.79,0,0,0-.27-.28l-.06,0a2.66,2.66,0,0,0,2.24,2.11A16.26,16.26,0,0,1,40.6,40Z"/><path class="cls-20" d="M46.89,37.93a17.9,17.9,0,0,1,1.58-2.47h0a2.82,2.82,0,0,0-1.78,2.72h0A1.37,1.37,0,0,0,46.89,37.93Z"/><path class="cls-16" d="M48.47,35.46a17.9,17.9,0,0,0-1.58,2.47,1.37,1.37,0,0,1-.19.23A3.84,3.84,0,0,0,48.47,35.46Z"/><path class="cls-19" d="M51.83,45.12c0-.09-.43-1.39-2.79-1.88a.18.18,0,0,0,0,0c.14.09.32.14.45.22A8.75,8.75,0,0,1,51.83,45.12Z"/><path class="cls-21" d="M49.5,43.51c-.13-.08-.31-.13-.45-.22a2.89,2.89,0,0,0,2.78,1.83h0A8.75,8.75,0,0,0,49.5,43.51Z"/></svg>